<svg id="Layer_1" enable-background="new 0 0 512 512" height="512" viewBox="0 0 512 512" width="512" xmlns="http://www.w3.org/2000/svg"><g><g><path d="m55 441.999c-8.284 0-15-6.716-15-15v-9.999c0-8.284 6.716-15 15-15s15 6.716 15 15v9.999c0 8.284-6.716 15-15 15z" fill="#d98ff8"/></g><g><path d="m55 512c-8.284 0-15-6.716-15-15v-10c0-8.284 6.716-15 15-15s15 6.716 15 15v10c0 8.284-6.716 15-15 15z" fill="#d98ff8"/></g><g><path d="m95 472h-10c-8.284 0-15-6.716-15-15s6.716-15 15-15h10c8.284 0 15 6.716 15 15s-6.716 15-15 15z" fill="#d98ff8"/></g><g><path d="m25 472h-10c-8.284 0-15-6.716-15-15s6.716-15 15-15h10c8.284 0 15 6.716 15 15s-6.716 15-15 15z" fill="#d98ff8"/></g><g><path d="m457 100.999c-8.284 0-15-6.716-15-15v-9.999c0-8.284 6.716-15 15-15s15 6.716 15 15v9.999c0 8.284-6.716 15-15 15z" fill="#ff435b"/></g><g><path d="m457 171c-8.284 0-15-6.716-15-15v-10c0-8.284 6.716-15 15-15s15 6.716 15 15v10c0 8.284-6.716 15-15 15z" fill="#ff435b"/></g><g><path d="m497 131h-10c-8.284 0-15-6.716-15-15s6.716-15 15-15h10c8.284 0 15 6.716 15 15s-6.716 15-15 15z" fill="#ff435b"/></g><g><path d="m427 131h-10c-8.284 0-15-6.716-15-15s6.716-15 15-15h10c8.284 0 15 6.716 15 15s-6.716 15-15 15z" fill="#ff435b"/></g><g><path d="m256 116.999c-8.284 0-15-6.716-15-15v-52c0-8.284 6.716-15 15-15s15 6.716 15 15v52c0 8.284-6.716 15-15 15z" fill="#4793ff"/></g><path d="m256 34.999c-.352 0-.697.029-1.043.053v81.895c.346.024.691.053 1.043.053 8.284 0 15-6.716 15-15v-52c0-8.286-6.716-15.001-15-15.001z" fill="#525cdd"/><g><path d="m256 474.998c-105.318 0-191-85.683-191-191s85.682-191 191-191 191 85.683 191 191-85.682 191-191 191z" fill="#bcfbff"/></g><g><g><path d="m256 474.998c-56.724 0-102.872-85.683-102.872-191s46.148-191 102.872-191 102.872 85.683 102.872 191-46.148 191-102.872 191z" fill="#76e2f8"/></g></g><path d="m256.489 284.095h-191.488c.053 105.273 85.714 190.903 190.999 190.903.163 0 .326-.006.489-.006z" fill="#00cef5"/><path d="m153.13 284.191c.056 105.229 46.181 190.807 102.87 190.807.163 0 .326-.01.489-.011v-190.796z" fill="#bcfbff"/><g><path d="m330 59.999h-148c-24.262 0-44-19.738-44-44v-.999c0-8.284 6.716-15 15-15h206c8.284 0 15 6.716 15 15v.998c0 24.262-19.739 44.001-44 44.001z" fill="#00429d"/></g><g><path d="m256 387.998c-107.103 0-191-45.683-191-104s83.897-103.999 191-103.999 191 45.682 191 103.999-83.897 104-191 104z" fill="#76e2f8"/></g><path d="m256.489 284.095h-191.487c.094 58.271 83.955 103.903 190.998 103.903.164 0 .326-.003.489-.003z" fill="#27d8f6"/><path d="m165.903 191.902c-8.136 27.328-12.774 58.723-12.774 92.095 0 33.373 4.639 64.768 12.775 92.096 26.699 7.615 57.307 11.904 90.097 11.904 32.791 0 63.399-4.288 90.097-11.904 8.136-27.328 12.775-58.723 12.775-92.096 0-33.372-4.639-64.767-12.774-92.095-26.699-7.616-57.307-11.904-90.097-11.904-32.793.001-63.401 4.289-90.099 11.904z" fill="#bcfbff"/><path d="m256.489 284.095h-103.36c.009 33.336 4.646 64.697 12.774 91.999 26.699 7.615 57.307 11.904 90.097 11.904.164 0 .325-.004.489-.004z" fill="#00cef5"/><path d="m255.512 284.095h191.488c-.053 105.272-85.714 190.902-190.999 190.902-.163 0-.326-.006-.489-.006z" fill="#0091bf"/><path d="m255.512 284.095h191.487c-.094 58.271-83.955 103.902-190.998 103.902-.164 0-.326-.003-.489-.003z" fill="#00aadf"/><path d="m358.871 284.191c-.057 105.229-46.182 190.807-102.87 190.807-.163 0-.326-.01-.489-.011v-190.796z" fill="#00aadf"/><path d="m255.512 284.095h103.36c-.009 33.336-4.646 64.697-12.774 91.999-26.699 7.615-57.307 11.904-90.097 11.904-.164 0-.325-.004-.489-.004z" fill="#7dd5f4"/><path d="m255.512 283.859h191.488c-.053-105.272-85.714-190.902-190.999-190.902-.163 0-.326.006-.489.006z" fill="#00cef5"/><path d="m255.512 284.115h191.487c-.094-58.271-83.955-103.902-190.998-103.902-.164 0-.326.003-.489.003z" fill="#7dd5f4"/><path d="m358.871 283.716c-.057-105.229-46.182-190.807-102.87-190.807-.163 0-.326.01-.489.011v190.795h103.359z" fill="#27d8f6"/><path d="m255.512 284.115h103.36c-.009-33.336-4.646-64.697-12.774-91.999-26.699-7.615-57.307-11.904-90.097-11.904-.164 0-.325.004-.489.004z" fill="#00cef5"/><path d="m359 0h-104.043v59.998h75.043c24.262 0 44-19.738 44-44v-.998c0-8.284-6.716-15-15-15z" fill="#00347b"/></g></svg>