<?xml version="1.0" encoding="iso-8859-1"?>
<!-- Generator: Adobe Illustrator 19.0.0, SVG Export Plug-In . SVG Version: 6.00 Build 0)  -->
<svg version="1.1" id="Capa_1" xmlns="http://www.w3.org/2000/svg" xmlns:xlink="http://www.w3.org/1999/xlink" x="0px" y="0px"
	 viewBox="0 0 512 512" style="enable-background:new 0 0 512 512;" xml:space="preserve">
<path style="fill:#FED130;" d="M211.631,276.943h88.888c-36.82-46.691-32.978-113.983-32.978-113.983h-11.466h-11.466
	C244.609,162.96,248.451,230.252,211.631,276.943z"/>
<path style="fill:#F7BC14;" d="M267.542,162.96h-11.466H244.61c0,0,0.737,12.923-1.533,31.372
	c-3.502,28.463,3.828,57.387,21.039,80.326c0.575,0.767,1.161,1.529,1.758,2.285h34.648
	C263.7,230.252,267.542,162.96,267.542,162.96z"/>
<path style="fill:#FFB125;" d="M319.729,297.313H192.932c-2.278,0-3.859-2.271-3.068-4.408l12.668-34.197
	c0.475-1.283,1.699-2.135,3.068-2.135h101.46c1.368,0,2.592,0.852,3.068,2.135l12.668,34.197
	C323.588,295.042,322.007,297.313,319.729,297.313z"/>
<path style="fill:#FF901D;" d="M322.796,292.905l-12.668-34.197c-0.475-1.283-1.699-2.135-3.067-2.135h-33.08l15.092,40.739h30.656
	C322.007,297.313,323.588,295.042,322.796,292.905z"/>
<path style="fill:#61AFF6;" d="M258.647,9.076l29.091,73.321c0.355,0.895,1.194,1.505,2.155,1.566l78.722,5.009
	c2.249,0.143,3.165,2.963,1.43,4.4l-60.743,50.324c-0.741,0.614-1.062,1.601-0.823,2.534l19.562,76.417
	c0.559,2.183-1.84,3.926-3.743,2.72l-66.632-42.219c-0.813-0.515-1.851-0.515-2.664,0l-66.632,42.219
	c-1.904,1.206-4.302-0.536-3.743-2.72l19.562-76.417c0.239-0.933-0.082-1.92-0.823-2.534l-60.743-50.324
	c-1.735-1.438-0.819-4.257,1.43-4.4l78.722-5.009c0.961-0.061,1.8-0.671,2.155-1.566l29.09-73.321
	C254.851,6.981,257.816,6.981,258.647,9.076z"/>
<path style="fill:#FF4C4C;" d="M258.647,9.076l29.091,73.321c0.355,0.895,1.194,1.505,2.155,1.566l78.722,5.009
	c2.249,0.143,3.165,2.963,1.43,4.4l-60.743,50.324c-0.741,0.614-1.062,1.601-0.823,2.534l19.562,76.417
	c0.559,2.183-1.84,3.926-3.743,2.72l-66.632-42.219c-0.813-0.515-1.851-0.515-2.664,0l-66.632,42.219
	c-1.904,1.206-4.302-0.536-3.743-2.72l19.562-76.417c0.239-0.933-0.082-1.92-0.823-2.534l-60.743-50.324
	c-1.735-1.438-0.819-4.257,1.43-4.4l78.722-5.009c0.961-0.061,1.8-0.671,2.155-1.566l29.09-73.321
	C254.851,6.981,257.816,6.981,258.647,9.076z"/>
<g>
	<path style="fill:#EA2828;" d="M246.424,72.893c2.507,6.32,8.571,10.51,15.369,10.62l27.65,0.449l-0.041-0.102
		c-0.746-0.203-1.373-0.727-1.666-1.464l-29.09-73.321c-0.831-2.095-3.796-2.095-4.627,0l-16.458,41.482L246.424,72.893z"/>
	<path style="fill:#EA2828;" d="M368.615,88.972l-36.14-2.3l-62.496,51.776l16.042,62.666l38.276,24.252
		c1.904,1.206,4.302-0.536,3.743-2.72l-19.562-76.417c-0.239-0.933,0.082-1.92,0.823-2.534l60.743-50.324
		C371.78,91.935,370.864,89.115,368.615,88.972z"/>
</g>
<path style="fill:#B9BBC1;" d="M498.056,339.034H338.731v-41.5c0-3.388-2.747-6.135-6.135-6.135H179.405
	c-3.388,0-6.135,2.747-6.135,6.135v41.5H13.943c-3.388,0-6.135,2.747-6.135,6.135V498.36c0,3.388,2.747,6.135,6.135,6.135h159.326
	H338.73h159.326c3.388,0,6.135-2.747,6.135-6.135V345.169C504.192,341.781,501.445,339.034,498.056,339.034z"/>
<g>
	<path style="fill:#A0A3AA;" d="M498.056,339.034h-30.505v165.461l0,0h30.505c3.388,0,6.135-2.747,6.135-6.135V345.169
		C504.192,341.781,501.445,339.034,498.056,339.034z"/>
	<polygon style="fill:#A0A3AA;" points="173.269,339.034 136.629,339.034 136.629,504.495 136.629,504.495 173.269,504.495 	"/>
</g>
<path style="fill:#B9BBC1;" d="M338.731,504.495H173.269V297.534c0-3.388,2.747-6.135,6.135-6.135h153.191
	c3.388,0,6.135,2.747,6.135,6.135v206.961H338.731z"/>
<path style="fill:#A0A3AA;" d="M332.595,291.399h-29.221v213.096h35.356V297.534C338.731,294.146,335.984,291.399,332.595,291.399z"
	/>
<path style="fill:#FED130;" d="M88.087,478.142c-31.087,0-56.377-25.291-56.377-56.377c0-31.088,25.291-56.378,56.377-56.378h0.831
	c31.087,0,56.377,25.291,56.377,56.378s-25.291,56.377-56.377,56.377L88.087,478.142L88.087,478.142z"/>
<path style="fill:#F7BC14;" d="M88.918,365.386h-0.831c-5.347,0-10.517,0.764-15.422,2.162c22.447,7.794,38.608,29.15,38.608,54.217
	c0,25.067-16.161,46.422-38.608,54.216c4.905,1.397,10.074,2.162,15.422,2.162h0.831c31.087,0,56.377-25.291,56.377-56.377
	C145.295,390.677,120.004,365.386,88.918,365.386z"/>
<path style="fill:#FED130;" d="M256.494,454.325c-31.088,0-56.378-25.291-56.378-56.378s25.291-56.378,56.378-56.378h0.83
	c31.087,0,56.378,25.291,56.378,56.378c0,31.088-25.291,56.378-56.378,56.378H256.494z"/>
<path style="fill:#F7BC14;" d="M257.324,341.569h-0.83c-5.417,0-10.651,0.783-15.613,2.216
	c22.371,7.835,38.464,29.149,38.464,54.161c0,25.013-16.093,46.327-38.465,54.162c4.962,1.433,10.196,2.216,15.613,2.216h0.83
	c31.087,0,56.378-25.291,56.378-56.378C313.702,366.86,288.411,341.569,257.324,341.569z"/>
<path style="fill:#FED130;" d="M423.082,478.142c-31.087,0-56.378-25.291-56.378-56.377c0-31.088,25.291-56.378,56.378-56.378h0.831
	c31.087,0,56.377,25.291,56.377,56.378s-25.291,56.377-56.377,56.377L423.082,478.142L423.082,478.142z"/>
<path style="fill:#F7BC14;" d="M423.913,365.386h-0.831c-5.399,0-10.617,0.779-15.565,2.203
	c22.391,7.825,38.501,29.149,38.501,54.176c0,25.026-16.11,46.35-38.5,54.175c4.948,1.424,10.165,2.203,15.565,2.203h0.831
	c31.087,0,56.377-25.291,56.377-56.377C480.29,390.677,455,365.386,423.913,365.386z"/>
<path d="M424.029,453.383c11.349,0,20.635-5.245,20.635-19.087v-1.634c0-7.136-3.697-11.005-8.77-12.983
	c4.213-1.977,6.706-7.48,6.706-14.272c0-11.435-7.738-15.39-18.141-15.39c-14.53,0-18.829,8.856-18.829,14.96
	c0,3.611,0.774,4.815,5.761,4.815c4.127,0,5.331-1.72,5.331-4.299c0-3.439,2.063-5.761,7.652-5.761c4.643,0,7.566,1.892,7.566,7.566
	c0,7.394-3.611,8.425-7.91,8.425c-2.493,0-3.353,2.236-3.353,4.385c0,2.235,0.86,4.385,3.353,4.385c5.503,0,9.458,1.806,9.458,8.168
	v1.634c0,6.534-2.751,9.285-9.2,9.285c-5.503,0-8.942-2.407-8.942-6.276c0-2.751-1.203-3.955-5.761-3.955
	c-3.869,0-5.331,0.946-5.331,4.385C404.254,444.699,409.929,453.383,424.029,453.383z"/>
<path d="M73.886,453.125h30.608c1.892,0,3.525-2.407,3.525-4.987s-1.633-4.815-3.525-4.815H80.593v-2.064
	c0-8.941,27.255-14.96,27.255-33.531c0-10.92-9.286-17.454-19.259-17.454c-9.544,0-18.485,6.019-18.485,15.82
	c0,4.643,2.149,6.019,5.073,6.019c3.697,0,5.847-2.063,5.847-4.127c0-5.331,3.439-7.566,7.652-7.566
	c5.675,0,7.996,4.127,7.996,7.652c0,12.123-27.685,19.431-27.685,33.188v8.34C68.986,451.75,71.909,453.125,73.886,453.125z"/>
<path d="M258.23,363.82c-0.946,0-1.72,0.344-2.322,0.86l-10.145,7.738c-1.375,0.859-2.149,2.493-2.149,4.041
	c0,2.235,1.461,4.471,3.611,4.471c0.601,0,1.375-0.172,2.063-0.774l2.751-2.751v45.912c0,2.321,2.751,3.525,5.589,3.525
	c2.751,0,5.589-1.204,5.589-3.525v-55.885C263.217,365.195,260.552,363.82,258.23,363.82z"/>
<path d="M498.057,331.529h-94.964c-4.145,0-7.505,3.36-7.505,7.505c0,4.145,3.36,7.505,7.505,7.505h93.594V496.99H346.235V346.539
	h21.938c4.145,0,7.505-3.36,7.505-7.505c0-4.145-3.36-7.505-7.505-7.505h-21.938v-33.995c0-7.521-6.119-13.64-13.64-13.64h-5.134
	l-10.297-27.796c-1.56-4.204-5.62-7.029-10.104-7.029h-14.98c-7.196-15.016-11.359-30.592-13.772-43.958l41.972,26.594
	c3.482,2.206,7.887,2.068,11.223-0.356c3.335-2.423,4.83-6.57,3.807-10.564l-18.773-73.338l58.294-48.296
	c3.175-2.63,4.403-6.863,3.13-10.784c-1.273-3.921-4.755-6.624-8.87-6.886l-75.55-4.808L265.622,6.306
	C264.101,2.475,260.456,0,256.333,0c0,0-0.001,0-0.002,0c-4.123,0-7.768,2.477-9.287,6.308l-27.918,70.367l-14.131,0.9
	c-4.136,0.263-7.276,3.83-7.013,7.967c0.263,4.136,3.793,7.273,7.967,7.013l17.301-1.101c3.837-0.244,7.234-2.711,8.656-6.288
	l24.427-61.569l24.427,61.566c1.418,3.578,4.816,6.047,8.656,6.291l66.105,4.207l-51.01,42.26
	c-2.959,2.453-4.256,6.445-3.303,10.172l16.426,64.169l-55.952-35.453c-0.038-0.026,0.039,0.025,0,0l0,0
	c-3.251-2.058-7.451-2.057-10.696,0.001l-55.952,35.452l16.428-64.172c0.953-3.727-0.346-7.72-3.307-10.172L157.147,95.66
	l13.758-0.876c4.136-0.263,7.276-3.83,7.012-7.966c-0.263-4.136-3.801-7.282-7.966-7.013l-26.375,1.678
	c-4.114,0.262-7.596,2.965-8.87,6.886c-1.273,3.921-0.045,8.154,3.129,10.783l58.296,48.297l-18.774,73.337
	c-1.022,3.994,0.472,8.141,3.807,10.564c1.758,1.277,3.811,1.92,5.871,1.92c1.85,0,3.706-0.519,5.352-1.563l41.39-26.225
	c-2.419,13.26-6.569,28.699-13.705,43.588H205.6c-4.484,0-8.545,2.825-10.105,7.032l-10.296,27.793h-5.795
	c-7.521,0-13.64,6.119-13.64,13.64v33.995H13.943c-7.521,0-13.64,6.119-13.64,13.64v153.19c0,7.521,6.119,13.64,13.64,13.64h484.114
	c7.521,0,13.64-6.119,13.64-13.64V345.169C511.697,337.648,505.577,331.529,498.057,331.529z M165.765,496.99H15.313V346.539
	h150.451L165.765,496.99L165.765,496.99z M250.573,194.838l5.761-3.65l5.202,3.296c1.796,14.967,5.707,34.859,14.094,54.585h-39.11
	C244.855,229.467,248.766,209.709,250.573,194.838z M208.546,264.078L208.546,264.078c0.008,0,0,0,0.008,0
	S208.539,264.078,208.546,264.078h95.568c0.007,0,0,0,0.007,0c0.008,0-0.016,0-0.007,0l0,0l7.34,19.816H201.206L208.546,264.078z
	 M331.226,298.904V496.99H180.774V298.904l0,0H331.226C331.234,298.904,331.217,298.904,331.226,298.904
	C331.24,298.904,331.211,298.904,331.226,298.904L331.226,298.904L331.226,298.904z"/>
<path d="M88.087,485.647h0.831c35.225,0,63.882-28.657,63.882-63.882c0-35.226-28.657-63.883-63.882-63.883h-0.831
	c-35.225,0-63.882,28.658-63.882,63.883C24.205,456.99,52.862,485.647,88.087,485.647z M88.087,372.891h0.831
	c26.948,0,48.873,21.924,48.873,48.874c0,26.949-21.924,48.873-48.873,48.873h-0.831c-26.948,0-48.873-21.924-48.873-48.873
	C39.214,394.816,61.139,372.891,88.087,372.891z"/>
<path d="M257.324,334.064h-0.83c-35.225,0-63.883,28.657-63.883,63.882c0,35.226,28.658,63.883,63.883,63.883h0.83
	c35.225,0,63.882-28.658,63.882-63.883C321.206,362.722,292.549,334.064,257.324,334.064z M257.324,446.82h-0.83
	c-26.949,0-48.874-21.924-48.874-48.874c0-26.949,21.924-48.873,48.874-48.873h0.83c26.948,0,48.873,21.924,48.873,48.873
	C306.197,424.896,284.272,446.82,257.324,446.82z"/>
<path d="M423.082,485.647h0.831c35.225,0,63.882-28.657,63.882-63.882c0-35.226-28.657-63.883-63.882-63.883h-0.831
	c-35.225,0-63.882,28.658-63.882,63.883S387.857,485.647,423.082,485.647z M423.082,372.891h0.831
	c26.948,0,48.873,21.924,48.873,48.874c0,26.949-21.924,48.873-48.873,48.873h-0.831c-26.948,0-48.873-21.924-48.873-48.873
	C374.21,394.816,396.134,372.891,423.082,372.891z"/>
<g>
</g>
<g>
</g>
<g>
</g>
<g>
</g>
<g>
</g>
<g>
</g>
<g>
</g>
<g>
</g>
<g>
</g>
<g>
</g>
<g>
</g>
<g>
</g>
<g>
</g>
<g>
</g>
<g>
</g>
</svg>
