<svg xmlns="http://www.w3.org/2000/svg" width="25" height="25.546" viewBox="0 0 25 25.546"><defs><style>.a{fill-rule:evenodd;fill:#fff}</style></defs><g transform="translate(-30.489 -23.235)"><path class="a" d="M38.794,23.322c-6.6.836-10.371,8.534-7.115,14.518,2.393,4.4,8.436,6.378,12.818,4.2l1.591-.789,3.774,3.763,3.774,3.763.926-.956.926-.956-3.729-3.721-3.729-3.721.825-1.3c4.4-6.946-1.661-15.87-10.063-14.805m5,2.134a8.328,8.328,0,0,1,.3,15.057c-8.425,4.122-16.29-6.533-9.793-13.266A8.018,8.018,0,0,1,43.8,25.456m-4.223,4.783v2.027H37.548c-1.969,0-2.027.021-2.027.724s.058.724,2.027.724h2.027v2.027c0,1.969.021,2.027.724,2.027s.724-.058.724-2.027V33.714h2.027c1.969,0,2.027-.021,2.027-.724s-.058-.724-2.027-.724H41.022V30.239c0-1.969-.021-2.027-.724-2.027s-.724.058-.724,2.027" transform="translate(0)"/></g></svg>